<svg xmlns="http://www.w3.org/2000/svg" viewBox="0 0 160 110"><defs><linearGradient id="b1"><stop stop-color="#F8B7DE"/><stop offset="1" stop-color="#C68DF2"/></linearGradient><linearGradient id="b2"><stop stop-color="#FFCFEB"/><stop offset="1" stop-color="#E987C2"/></linearGradient></defs><path d="M69 45C52 18 29 8 13 21C-1 33 9 59 27 65C42 70 56 61 69 53Z" fill="url(#b1)"/><path d="M91 45C108 18 131 8 147 21C161 33 151 59 133 65C118 70 104 61 91 53Z" fill="url(#b2)"/><path d="M70 59L49 101L76 85L80 63Z" fill="#C889F4"/><path d="M90 59L111 101L84 85L80 63Z" fill="#EF8BBC"/><rect x="65" y="41" width="30" height="30" rx="12" fill="#D477C8"/></svg>