<svg xmlns="http://www.w3.org/2000/svg" viewBox="0 0 420 470"><defs><linearGradient id="wall" x1="0" y1="0" x2="0" y2="1"><stop offset="0" stop-color="#FFF9F2"/><stop offset="1" stop-color="#E5D8FF"/></linearGradient><linearGradient id="roof" x1="0" y1="0" x2="0" y2="1"><stop offset="0" stop-color="#D5BCFF"/><stop offset="1" stop-color="#9B7EDB"/></linearGradient></defs><ellipse cx="210" cy="438" rx="180" ry="24" fill="#E9DFFD" opacity=".55"/><rect x="90" y="190" width="240" height="230" rx="18" fill="url(#wall)"/><rect x="35" y="235" width="95" height="185" rx="16" fill="#D8C6FF"/><rect x="290" y="235" width="95" height="185" rx="16" fill="#D8C6FF"/><rect x="165" y="105" width="90" height="315" rx="16" fill="#F4ECFF"/><path d="M35 235L82 145L130 235Z" fill="url(#roof)"/><path d="M165 105L210 20L255 105Z" fill="url(#roof)"/><path d="M290 235L337 145L385 235Z" fill="url(#roof)"/><rect x="190" y="320" width="40" height="100" rx="20" fill="#B48CE3"/><g fill="#FFF5B8"><rect x="65" y="285" width="28" height="42" rx="12"/><rect x="327" y="285" width="28" height="42" rx="12"/><rect x="195" y="170" width="30" height="48" rx="13"/></g><path d="M210 20V0" stroke="#8B72C9" stroke-width="7" stroke-linecap="round"/><path d="M210 2L258 18L210 35Z" fill="#FFE792"/></svg>